<svg width="89" height="28" viewBox="0 0 89 28" fill="none" xmlns="http://www.w3.org/2000/svg">
<path d="M1.05225 20.3385V9.09821L11.9469 15.3234V26.5637L1.05225 20.3385Z" fill="#268DFE"/>
<path d="M1.05225 9.09725L10.9995 3.43896L21.8941 9.66419L11.9359 15.3225L1.05225 9.09725Z" fill="#268DFE"/>
<path d="M1.20605 11.7363L10.9991 6.17609L21.8937 12.4013L11.8473 17.798L1.20605 11.7363Z" fill="#E5F1FC"/>
<path d="M10.9993 2.91669L0.589355 8.83665V20.5675L11.9356 27.109L22.3456 21.189V9.40359L10.9993 2.91669ZM11.484 25.8116L1.51468 20.077V9.88326L11.484 15.5852V25.8116ZM1.97734 9.09833L10.9993 3.96331L20.9135 9.66521L11.8915 14.8002L1.97734 9.09833Z" fill="#16110D" stroke="#16110D"/>
<path d="M43.4332 18.6667V12.2092H37.1737V14.3092H41.1345C40.9931 15.1842 40.0913 16.7242 37.7749 16.7242C35.6707 16.7242 33.8141 15.2717 33.8141 12.4717C33.8141 9.53168 35.8652 8.25418 37.7572 8.25418C39.7907 8.25418 40.8339 9.53168 41.1522 10.6342L43.4862 9.81168C42.8674 7.90418 41.0461 5.99668 37.7572 5.99668C34.3623 5.99668 31.3386 8.46418 31.3386 12.4717C31.3386 16.4792 34.2208 18.9292 37.5981 18.9292C39.4901 18.9292 40.7278 18.0892 41.2937 17.2492L41.4528 18.6667H43.4332ZM48.0703 18.6667V10.0567H45.7186V18.6667H48.0703ZM45.4357 7.23918C45.4357 8.00918 46.0899 8.65668 46.8856 8.65668C47.699 8.65668 48.3356 8.00918 48.3356 7.23918C48.3356 6.43418 47.699 5.78668 46.8856 5.78668C46.0899 5.78668 45.4357 6.43418 45.4357 7.23918ZM49.9692 19.1392C50.2168 20.7842 51.8082 22.2542 54.1952 22.2542C57.4664 22.2542 58.7572 20.1017 58.7572 17.7392V10.0567H56.4939V11.0717C56.1933 10.4942 55.3976 9.89918 54.0184 9.89918C51.6313 9.89918 49.9692 11.8242 49.9692 14.0992C49.9692 16.5142 51.7021 18.2817 54.0184 18.2817C55.2739 18.2817 56.0872 17.7392 56.4409 17.1792V17.8092C56.4409 19.4717 55.6098 20.2067 54.1245 20.2067C53.0105 20.2067 52.2502 19.5242 52.0911 18.5792L49.9692 19.1392ZM54.4251 16.2867C53.205 16.2867 52.3386 15.4467 52.3386 14.0992C52.3386 12.7692 53.2581 11.9292 54.4251 11.9292C55.5568 11.9292 56.4762 12.7692 56.4762 14.0992C56.4762 15.4292 55.6275 16.2867 54.4251 16.2867ZM60.3962 16.2692C60.5023 17.2492 61.4041 18.9292 64.0211 18.9292C66.3021 18.9292 67.3984 17.4942 67.3984 16.0942C67.3984 14.8342 66.5319 13.8017 64.8168 13.4517L63.579 13.1892C63.1016 13.1017 62.7833 12.8392 62.7833 12.4192C62.7833 11.9292 63.2784 11.5617 63.8973 11.5617C64.8875 11.5617 65.2588 12.2092 65.3296 12.7167L67.2923 12.2792C67.1862 11.3517 66.3551 9.79418 63.8796 9.79418C62.0053 9.79418 60.6261 11.0717 60.6261 12.6117C60.6261 13.8192 61.3864 14.8167 63.0662 15.1842L64.2156 15.4467C64.8875 15.5867 65.1527 15.9017 65.1527 16.2867C65.1527 16.7417 64.7814 17.1442 64.0034 17.1442C62.9778 17.1442 62.4651 16.5142 62.412 15.8317L60.3962 16.2692ZM73.1621 16.8117C72.0128 16.8117 70.9519 15.9717 70.9519 14.3617C70.9519 12.7342 72.0128 11.9117 73.1621 11.9117C74.3115 11.9117 75.3724 12.7342 75.3724 14.3617C75.3724 15.9892 74.3115 16.8117 73.1621 16.8117ZM73.1621 9.79418C70.5629 9.79418 68.6002 11.7017 68.6002 14.3617C68.6002 17.0042 70.5629 18.9292 73.1621 18.9292C75.7614 18.9292 77.7241 17.0042 77.7241 14.3617C77.7241 11.7017 75.7614 9.79418 73.1621 9.79418ZM81.9325 13.7142C81.9325 12.7167 82.5337 11.9292 83.5592 11.9292C84.6909 11.9292 85.1683 12.6817 85.1683 13.6442V18.6667H87.52V13.2417C87.52 11.3517 86.5298 9.82918 84.3726 9.82918C83.4355 9.82918 82.3922 10.2317 81.8618 11.1242V10.0567H79.5808V18.6667H81.9325V13.7142Z" fill="#16110D"/>
</svg>
